#!OML:ASF H:\Dans Jumps\Project 1\Capture day 1\Session 1\subject.ASF
:FULLY-SPECIFIED
:DEGREES
196
root 0.578476 17.3005 -14.3348 6.26777 -1.4286 -1.57453
lowerback 1.59995 -0.342955 0.242241
upperback 4.64085 -0.515425 1.72971
thorax 3.89309 -0.28492 1.63732
lowerneck -13.3505 0.949021 -1.84689
upperneck 31.2376 1.807 0.181651
head 12.5458 0.600264 0.651084
rclavicle -4.17448e-015 7.15625e-015
rhumerus -24.7974 -15.8747 -79.0008
rradius 25.8774
rwrist 30.1148
rhand -18.5214 -26.231
rfingers 7.12502
rthumb 7.76715 -56.0684
lclavicle -4.17448e-015 7.15625e-015
lhumerus -21.2866 0.635222 86.2439
lradius 19.5918
lwrist 4.72856
lhand -25.6519 -2.83645
lfingers 7.12502
lthumb 0.881946 27.1415
rfemur -19.8088 -1.23318 20.0756
rtibia 31.3942
rfoot -16.537 -3.17924
rtoes 8.09131
lfemur -19.2128 8.16167 -19.2223
ltibia 30.4905
lfoot -14.9922 5.81732
ltoes 1.78405
197
root 0.57717 17.2923 -14.3431 6.29211 -1.45022 -1.60019
lowerback 1.68222 -0.338237 0.266569
upperback 4.68051 -0.509159 1.7365
thorax 3.8876 -0.281212 1.63127
lowerneck -13.3655 0.95547 -1.8386
upperneck 31.1398 1.81797 0.166252
head 12.5089 0.60521 0.644688
rclavicle -4.77083e-015 -7.7526e-015
rhumerus -24.892 -15.8779 -78.9632
rradius 25.9097
rwrist 30.0642
rhand -18.5171 -26.217
rfingers 7.12502
rthumb 7.7713 -56.0541
lclavicle -4.77083e-015 -7.7526e-015
lhumerus -21.3903 0.576723 86.2381
lradius 19.6326
lwrist 4.8676
lhand -25.6646 -2.80442
lfingers 7.12502
lthumb 0.869717 27.1736
rfemur -19.9891 -1.23232 20.1133
rtibia 31.6216
rfoot -16.6129 -3.18312
rtoes 8.03719
lfemur -19.4185 8.16371 -19.2006
ltibia 30.7781
lfoot -15.068 5.88485
ltoes 1.69644
198
root 0.576068 17.2838 -14.3514 6.32002 -1.47267 -1.6283
lowerback 1.7612 -0.332834 0.293586
upperback 4.72092 -0.502066 1.74471
thorax 3.88475 -0.277028 1.62515
lowerneck -13.3855 0.962223 -1.83071
upperneck 31.0439 1.82905 0.152617
head 12.4739 0.610353 0.639121
rclavicle 0 -3.97569e-015
rhumerus -24.9913 -15.8752 -78.9222
rradius 25.9436
rwrist 30.0166
rhand -18.5069 -26.2091
rfingers 7.12502
rthumb 7.78112 -56.046
lclavicle 0 -3.97569e-015
lhumerus -21.4973 0.527839 86.2345
lradius 19.6702
lwrist 4.98988
lhand -25.687 -2.82296
lfingers 7.12502
lthumb 0.848069 27.1551
rfemur -20.177 -1.23245 20.1533
rtibia 31.8546
rfoot -16.6902 -3.18676
rtoes 7.98139
lfemur -19.6299 8.16086 -19.1769
ltibia 31.0686
lfoot -15.1428 5.95764
ltoes 1.60959
199
root 0.575182 17.2751 -14.3599 6.35166 -1.49598 -1.65252
lowerback 1.8371 -0.326423 0.317099
upperback 4.7609 -0.49359 1.75246
thorax 3.88318 -0.272268 1.62052
lowerneck -13.4036 0.968773 -1.82378
upperneck 30.9448 1.83914 0.141615
head 12.4373 0.615346 0.63455
rclavicle -2.18663e-015 -6.95746e-015
rhumerus -25.0963 -15.8663 -78.8776
rradius 25.9761
rwrist 29.9703
rhand -18.4954 -26.2075
rfingers 7.12502
rthumb 7.79221 -56.0439
lclavicle -2.18663e-015 -6.95746e-015
lhumerus -21.6072 0.485263 86.2329
lradius 19.7066
lwrist 5.1039
lhand -25.6823 -2.79843
lfingers 7.12502
lthumb 0.852556 27.1796
rfemur -20.3744 -1.23718 20.1889
rtibia 32.0947
rfoot -16.7682 -3.19051
rtoes 7.90406
lfemur -19.8467 8.15499 -19.1586
ltibia 31.3609
lfoot -15.2179 6.03377
ltoes 1.51678
200
root 0.574466 17.2661 -14.3684 6.38623 -1.52062 -1.67288
lowerback 1.91441 -0.319269 0.336915
upperback 4.79946 -0.484009 1.75964
thorax 3.87937 -0.267068 1.61739
lowerneck -13.4236 0.975403 -1.81847
upperneck 30.8458 1.8488 0.133821
head 12.4012 0.620372 0.631446
rclavicle 2.68359e-015 -1.21259e-014
rhumerus -25.2094 -15.8522 -78.8293
rradius 26.0097
rwrist 29.9239
rhand -18.4833 -26.208
rfingers 7.12502
rthumb 7.80389 -56.044
lclavicle 2.68359e-015 -1.21259e-014
lhumerus -21.7205 0.443092 86.2341
lradius 19.7402
lwrist 5.21698
lhand -25.6701 -2.7602
lfingers 7.12502
lthumb 0.864409 27.2178
rfemur -20.581 -1.24526 20.2203
rtibia 32.3439
rfoot -16.8473 -3.19577
rtoes 7.79232
lfemur -20.0677 8.15095 -19.1459
ltibia 31.6547
lfoot -15.2934 6.10978
ltoes 1.4221
201
root 0.573927 17.2569 -14.377 6.42358 -1.54774 -1.6875
lowerback 1.99431 -0.31101 0.350217
upperback 4.8337 -0.472769 1.76643
thorax 3.8696 -0.26124 1.61753
lowerneck -13.438 0.98156 -1.81403
upperneck 30.7452 1.85747 0.127178
head 12.3633 0.625051 0.62873
rclavicle -1.59028e-015 2.18663e-015
rhumerus -25.338 -15.8262 -78.7751
rradius 26.0466
rwrist 29.874
rhand -18.4717 -26.2064
rfingers 7.12502
rthumb 7.81504 -56.042
lclavicle -1.59028e-015 2.18663e-015
lhumerus -21.8435 0.391437 86.2409
lradius 19.771
lwrist 5.34387
lhand -25.6192 -2.64211
lfingers 7.12502
lthumb 0.913546 27.3357
rfemur -20.7961 -1.25605 20.2452
rtibia 32.6032
rfoot -16.9294 -3.19915
rtoes 7.66794
lfemur -20.2924 8.14906 -19.1407
ltibia 31.9496
lfoot -15.3677 6.18614
ltoes 1.31947
